<svg width="16" height="16" viewBox="0 0 16 16" fill="none" xmlns="http://www.w3.org/2000/svg">
<path fill-rule="evenodd" clip-rule="evenodd" d="M10.4601 6.73003C10.4601 8.79007 8.79007 10.4601 6.73003 10.4601C4.66999 10.4601 3 8.79007 3 6.73003C3 4.66999 4.66999 3 6.73003 3C8.79007 3 10.4601 4.66999 10.4601 6.73003ZM10.3091 12.4305C9.27238 13.0828 8.04526 13.4601 6.73003 13.4601C3.01314 13.4601 0 10.4469 0 6.73003C0 3.01314 3.01314 0 6.73003 0C10.4469 0 13.4601 3.01314 13.4601 6.73003C13.4601 8.04535 13.0827 9.27254 12.4304 10.3093L15.5561 13.4349C16.1419 14.0207 16.1419 14.9705 15.5561 15.5563C14.9703 16.1421 14.0206 16.1421 13.4348 15.5563L10.3091 12.4305Z" fill="#111111"/>
</svg>
