<svg width="24" height="24" viewBox="0 0 24 24" fill="none" xmlns="http://www.w3.org/2000/svg">
<path d="M17.937 5.1713C18.5839 4.65379 18.6888 3.70985 18.1713 3.06296C17.6538 2.41606 16.7099 2.31118 16.063 2.8287L17.937 5.1713ZM7 12L6.06296 10.8287L4.59883 12L6.06296 13.1713L7 12ZM16.063 21.1713C16.7099 21.6888 17.6538 21.5839 18.1713 20.937C18.6888 20.2901 18.5839 19.3462 17.937 18.8287L16.063 21.1713ZM16.063 2.8287L6.06296 10.8287L7.93704 13.1713L17.937 5.1713L16.063 2.8287ZM6.06296 13.1713L16.063 21.1713L17.937 18.8287L7.93704 10.8287L6.06296 13.1713Z" fill="#111111"/>
</svg>
