<svg width="48" height="48" viewBox="0 0 48 48" fill="none" xmlns="http://www.w3.org/2000/svg">
<path fill-rule="evenodd" clip-rule="evenodd" d="M28 22C28 25.3137 25.3137 28 22 28C18.6863 28 16 25.3137 16 22C16 18.6863 18.6863 16 22 16C25.3137 16 28 18.6863 28 22ZM27.2093 30.5377C25.6921 31.4654 23.9085 32 22 32C16.4772 32 12 27.5228 12 22C12 16.4772 16.4772 12 22 12C27.5228 12 32 16.4772 32 22C32 24.1671 31.3107 26.1731 30.1393 27.8109L34.4142 32.0858C35.1953 32.8668 35.1953 34.1332 34.4142 34.9142C33.6332 35.6953 32.3668 35.6953 31.5858 34.9142L27.2093 30.5377Z" fill="#767676"/>
</svg>
