<svg width="60" height="48" viewBox="0 0 60 48" fill="none" xmlns="http://www.w3.org/2000/svg">
<rect width="60" height="48" rx="24" fill="#EFEFEF"/>
<path d="M27.904 32.088H18.416V26.632H27.68V28.136H20.288V30.6H27.904V32.088ZM24.64 24.872C23.296 25.192 21.1947 25.352 18.336 25.352H16.96V18.936H23.296V20.408H18.816V23.848C21.2373 23.848 23.088 23.7093 24.368 23.432L24.64 24.872ZM29.648 22.792H27.632V25.864H25.728V18.008H27.632V21.256H29.648V22.792ZM42.1158 32.264H40.2438V18.008H42.1158V32.264ZM37.7318 19.496C37.6144 24.04 35.4918 27.4373 31.3638 29.688L30.2118 28.28C31.7478 27.576 33.0171 26.5573 34.0198 25.224C35.0224 23.88 35.5878 22.488 35.7158 21.048H31.0758V19.496H37.7318Z" fill="#111111"/>
</svg>
