<svg width="24" height="24" viewBox="0 0 24 24" fill="none" xmlns="http://www.w3.org/2000/svg">
<path fill-rule="evenodd" clip-rule="evenodd" d="M13.3822 3.5C13.3822 2.67157 12.7106 2 11.8822 2C11.0538 2 10.3822 2.67157 10.3822 3.5V10.3822H3.5C2.67157 10.3822 2 11.0538 2 11.8822C2 12.7106 2.67157 13.3822 3.5 13.3822H10.3822V20.2642C10.3822 21.0927 11.0538 21.7642 11.8822 21.7642C12.7106 21.7642 13.3822 21.0927 13.3822 20.2642V13.3822H20.2642C21.0927 13.3822 21.7642 12.7106 21.7642 11.8822C21.7642 11.0538 21.0927 10.3822 20.2642 10.3822H13.3822V3.5Z" fill="#111111"/>
</svg>
